<svg width="37" height="37" viewBox="0 0 37 37" fill="none" xmlns="http://www.w3.org/2000/svg">
<circle cx="18.5" cy="18.5" r="18.5" fill="#CECECE"/>
<path d="M20.05 12C21.0267 12.1906 21.9244 12.6683 22.6281 13.3719C23.3317 14.0756 23.8094 14.9733 24 15.95L20.05 12ZM20.05 8C22.0793 8.22544 23.9716 9.13417 25.4162 10.577C26.8609 12.0198 27.772 13.911 28 15.94L20.05 8ZM27 23.92V26.92C27.0011 27.1985 26.9441 27.4742 26.8325 27.7293C26.7209 27.9845 26.5573 28.2136 26.3521 28.4019C26.1469 28.5901 25.9046 28.7335 25.6408 28.8227C25.3769 28.9119 25.0974 28.9451 24.82 28.92C21.7428 28.5856 18.787 27.5341 16.19 25.85C13.7738 24.3147 11.7253 22.2662 10.19 19.85C8.49998 17.2412 7.44824 14.271 7.12 11.18C7.09501 10.9035 7.12788 10.6248 7.2165 10.3616C7.30513 10.0985 7.44757 9.85669 7.63477 9.65162C7.82196 9.44655 8.04981 9.28271 8.30379 9.17052C8.55778 9.05833 8.83234 9.00026 9.11 9H12.11C12.5953 8.99522 13.0658 9.16708 13.4338 9.48353C13.8017 9.79999 14.0421 10.2394 14.11 10.72C14.2366 11.6801 14.4715 12.6227 14.81 13.53C14.9445 13.8879 14.9737 14.2769 14.8939 14.6509C14.8142 15.0248 14.6289 15.3681 14.36 15.64L13.09 16.91C14.5136 19.4135 16.5865 21.4864 19.09 22.91L20.36 21.64C20.6319 21.3711 20.9752 21.1858 21.3491 21.1061C21.7231 21.0263 22.1121 21.0555 22.47 21.19C23.3773 21.5286 24.3199 21.7634 25.28 21.89C25.7658 21.9585 26.2094 22.2032 26.5265 22.5775C26.8437 22.9518 27.0122 23.4296 27 23.92Z" stroke="black" stroke-linecap="round" stroke-linejoin="round"/>
</svg>
