<svg width="22" height="30" viewBox="0 0 22 30" fill="none" xmlns="http://www.w3.org/2000/svg">
<path fill-rule="evenodd" clip-rule="evenodd" d="M18.3629 20.7046V3.38479L20.5375 0.509705V1.10141V20.7046C20.5375 23.0579 19.7378 25.3019 18.3329 26.9457C16.93 28.5871 15.0457 29.4903 13.101 29.4903C11.1563 29.4903 9.272 28.5871 7.86913 26.9457C6.46418 25.3019 5.66449 23.0579 5.66449 20.7046V12.7734L12.0159 20.2046H8.33909H7.83909V20.7046C7.83909 22.2917 8.37726 23.8266 9.35374 24.969C10.3323 26.1139 11.6779 26.776 13.101 26.776C14.5241 26.776 15.8697 26.1139 16.8483 24.969C17.8247 23.8266 18.3629 22.2917 18.3629 20.7046Z" fill="black"/>
<path fill-rule="evenodd" clip-rule="evenodd" d="M5.68886 5.11609V5.64419L6.21617 5.61534C6.77797 5.58461 8.18591 5.58411 9.76358 6.01583C11.3394 6.44706 13.0514 7.29962 14.2806 8.9504C15.7043 10.8623 16.3217 13.7816 16.5674 16.591C16.688 17.9701 16.7174 19.2927 16.7163 20.4231C16.2622 19.3285 15.6427 17.9965 14.8575 16.6617C13.9248 15.0763 12.7459 13.4658 11.3146 12.2469C9.87985 11.0253 8.16836 10.1787 6.18886 10.1787H5.68886V10.6787V12.8059L3.60106 10.6259L3.60106 10.6259L1.46249 8.39298L3.58816 5.72978L5.68886 3.09785V5.11609ZM17.2045 21.6686C17.2013 21.8627 17.1979 22.0464 17.1946 22.2184C17.1979 22.0464 17.2013 21.8627 17.2045 21.6686Z" fill="black"/>
</svg>
