<svg width="20" height="20" viewBox="0 0 20 20" fill="none" xmlns="http://www.w3.org/2000/svg">
<path d="M10 1.25C10.5078 1.25 11.0319 1.35091 11.5723 1.55273C12.1126 1.75456 12.5846 2.00846 12.9883 2.31445C13.3919 2.62044 13.724 2.95898 13.9844 3.33008C14.2448 3.70117 14.375 4.04948 14.375 4.375V7.5C14.375 8.24219 14.2188 9.06901 13.9062 9.98047C13.5938 10.8919 13.1315 11.582 12.5195 12.0508C12.4154 12.1419 12.3242 12.2493 12.2461 12.373C12.168 12.4967 12.1126 12.627 12.0801 12.7637C12.0475 12.9004 12.0378 13.0404 12.0508 13.1836C12.1159 13.6523 12.3568 13.9844 12.7734 14.1797L18.2227 16.7578L18.2617 16.7676L18.3398 16.7969L18.4375 16.8555L18.5449 16.9434L18.6426 17.0703L18.7109 17.2656L18.7305 17.5195V18.7305L1.25 18.75V17.4805C1.25 17.1549 1.42578 16.9141 1.77734 16.7578L7.26562 14.1602C7.68229 13.9648 7.91992 13.6361 7.97852 13.1738C8.03711 12.7116 7.88411 12.3372 7.51953 12.0508C6.92057 11.569 6.45508 10.8691 6.12305 9.95117C5.79102 9.0332 5.625 8.21615 5.625 7.5V4.375C5.625 3.94531 5.83984 3.48633 6.26953 2.99805C6.69922 2.50977 7.25911 2.09635 7.94922 1.75781C8.63932 1.41927 9.32292 1.25 10 1.25ZM10 0C9.10156 0 8.21289 0.218099 7.33398 0.654297C6.45508 1.09049 5.74219 1.65039 5.19531 2.33398C4.64844 3.01758 4.375 3.69792 4.375 4.375V7.5C4.375 8.34635 4.57357 9.31966 4.9707 10.4199C5.36784 11.5202 5.95703 12.3893 6.73828 13.0273L1.25 15.625C1.21094 15.638 1.16536 15.6576 1.11328 15.6836C1.0612 15.7096 0.963542 15.7682 0.820312 15.8594C0.677083 15.9505 0.55013 16.0417 0.439453 16.1328C0.328776 16.224 0.227865 16.3379 0.136719 16.4746C0.0455729 16.6113 0 16.7383 0 16.8555V18.75C0 19.0885 0.120443 19.3783 0.361328 19.6191C0.602214 19.86 0.898438 19.9805 1.25 19.9805H18.75C19.0885 19.9805 19.3783 19.86 19.6191 19.6191C19.86 19.3783 19.9805 19.0885 19.9805 18.75V16.8555C19.9805 16.7253 19.9382 16.5918 19.8535 16.4551C19.7689 16.3184 19.6647 16.2012 19.541 16.1035C19.4173 16.0059 19.2969 15.918 19.1797 15.8398C19.0625 15.7617 18.9583 15.7031 18.8672 15.6641L18.75 15.625L13.3008 13.0273C14.082 12.4154 14.6647 11.569 15.0488 10.4883C15.4329 9.40755 15.625 8.41146 15.625 7.5V4.375C15.625 3.86719 15.459 3.34961 15.127 2.82227C14.7949 2.29492 14.3685 1.82292 13.8477 1.40625C13.3268 0.989583 12.7214 0.651042 12.0312 0.390625C11.3411 0.130208 10.6641 0 10 0Z" fill="url(#paint0_linear_117_422)"/>
<defs>
<linearGradient id="paint0_linear_117_422" x1="0.222005" y1="10.4246" x2="19.7585" y2="10.4246" gradientUnits="userSpaceOnUse">
<stop stop-color="#3CBEDB"/>
<stop offset="1" stop-color="#C94CCC"/>
</linearGradient>
</defs>
</svg>
