<svg width="18" height="15" viewBox="0 0 18 15" fill="none" xmlns="http://www.w3.org/2000/svg">
<path d="M5.05339 5.9685C5.6357 5.90913 6.08605 6.01244 6.24707 6.09081C6.31842 6.12856 6.39677 6.15186 6.47748 6.15933C6.55818 6.1668 6.6396 6.1583 6.71689 6.13432C6.79418 6.11035 6.86578 6.07138 6.92743 6.01975C6.98908 5.96812 7.03952 5.90486 7.07578 5.83374C7.11203 5.76262 7.13335 5.68508 7.13847 5.60572C7.1436 5.52636 7.13241 5.4468 7.10559 5.37177C7.07877 5.29673 7.03686 5.22774 6.98234 5.16889C6.92782 5.11004 6.86181 5.06254 6.78821 5.02919C6.36329 4.82019 5.66476 4.71213 4.92749 4.78813C3.76529 4.90688 2.56919 5.89725 2.56919 7.51581C2.56919 9.1605 3.84519 10.2471 5.35363 10.2471C6.05579 10.2471 6.68531 9.92406 7.04487 9.59038C7.36205 9.29588 7.41169 8.90519 7.41169 8.66056V7.51581C7.41169 7.35834 7.34791 7.20732 7.23439 7.09597C7.12088 6.98462 6.96691 6.92206 6.80637 6.92206H5.8294C5.66886 6.92206 5.5149 6.98462 5.40138 7.09597C5.28786 7.20732 5.22409 7.35834 5.22409 7.51581C5.22409 7.67329 5.28786 7.82431 5.40138 7.93566C5.5149 8.04701 5.66886 8.10956 5.8294 8.10956H6.20106V8.66056C6.20104 8.68882 6.19861 8.71702 6.1938 8.74488C5.9581 8.93998 5.66191 9.05092 5.35363 9.05956C4.46866 9.05956 3.77982 8.45988 3.77982 7.51581C3.77982 6.54444 4.46624 6.02906 5.05339 5.9685ZM9.83293 5.3795C9.83293 5.22203 9.76916 5.07101 9.65564 4.95966C9.54212 4.84831 9.38816 4.78575 9.22762 4.78575C9.06708 4.78575 8.91312 4.84831 8.7996 4.95966C8.68608 5.07101 8.62231 5.22203 8.62231 5.3795V9.6545C8.62231 9.81197 8.68608 9.963 8.7996 10.0743C8.91312 10.1857 9.06708 10.2483 9.22762 10.2483C9.38816 10.2483 9.54212 10.1857 9.65564 10.0743C9.76916 9.963 9.83293 9.81197 9.83293 9.6545V5.3795V5.3795ZM11.6489 4.78575C11.4883 4.78575 11.3344 4.84831 11.2208 4.95966C11.1073 5.07101 11.0436 5.22203 11.0436 5.3795V9.6545C11.0436 9.81197 11.1073 9.963 11.2208 10.0743C11.3344 10.1857 11.4883 10.2483 11.6489 10.2483C11.8094 10.2483 11.9634 10.1857 12.0769 10.0743C12.1904 9.963 12.2542 9.81197 12.2542 9.6545V8.106L13.4684 8.09888C13.629 8.09793 13.7825 8.03447 13.8954 7.92245C14.0082 7.81043 14.0711 7.65904 14.0701 7.50156C14.0691 7.34409 14.0044 7.19344 13.8902 7.08276C13.7761 6.97208 13.6217 6.91043 13.4612 6.91138L12.2542 6.9185V5.97206H14.0701C14.2306 5.97206 14.3846 5.90951 14.4981 5.79816C14.6116 5.68681 14.6754 5.53579 14.6754 5.37831C14.6754 5.22084 14.6116 5.06982 14.4981 4.95847C14.3846 4.84712 14.2306 4.78456 14.0701 4.78456H11.6489V4.78575ZM3.17451 0.380127C2.37181 0.380127 1.602 0.692905 1.03441 1.24965C0.466818 1.8064 0.147949 2.56152 0.147949 3.34888V11.6614C0.147949 12.4487 0.466818 13.2039 1.03441 13.7606C1.602 14.3173 2.37181 14.6301 3.17451 14.6301H14.0701C14.8728 14.6301 15.6426 14.3173 16.2102 13.7606C16.7778 13.2039 17.0967 12.4487 17.0967 11.6614V3.34888C17.0967 2.56152 16.7778 1.8064 16.2102 1.24965C15.6426 0.692905 14.8728 0.380127 14.0701 0.380127H3.17451ZM1.35857 3.34888C1.35857 2.87646 1.54989 2.42339 1.89045 2.08934C2.231 1.75529 2.69289 1.56763 3.17451 1.56763H14.0701C14.5517 1.56763 15.0136 1.75529 15.3542 2.08934C15.6947 2.42339 15.886 2.87646 15.886 3.34888V11.6614C15.886 12.1338 15.6947 12.5869 15.3542 12.9209C15.0136 13.255 14.5517 13.4426 14.0701 13.4426H3.17451C2.69289 13.4426 2.231 13.255 1.89045 12.9209C1.54989 12.5869 1.35857 12.1338 1.35857 11.6614V3.34888Z" fill="#545454"/>
</svg>
