<svg width="28" height="28" viewBox="0 0 28 28" fill="none" xmlns="http://www.w3.org/2000/svg">
<path d="M11.375 1.75V5.25L9.625 6.125L7 3.5L3.5 7L6.125 9.625L5.25 11.375H1.75V16.625H5.25L6.125 18.375L3.5 21L7 24.5L9.625 21.875L11.375 22.75V26.25H16.625V22.75L18.375 21.875L21 24.5L24.5 21L21.875 18.375L22.75 16.625H26.25V11.375H22.75L21.875 9.625L24.5 7L21 3.5L18.375 6.125L16.625 5.25V1.75H11.375Z" stroke="black" stroke-linecap="round" stroke-linejoin="round"/>
<path d="M14 17.5C15.933 17.5 17.5 15.933 17.5 14C17.5 12.067 15.933 10.5 14 10.5C12.067 10.5 10.5 12.067 10.5 14C10.5 15.933 12.067 17.5 14 17.5Z" stroke="black" stroke-linecap="round" stroke-linejoin="round"/>
</svg>
