<svg width="24" height="24" viewBox="0 0 24 24" fill="none" xmlns="http://www.w3.org/2000/svg">
<path d="M12 12C13.0609 12 14.0783 11.5786 14.8284 10.8284C15.5786 10.0783 16 9.06087 16 8C16 6.93913 15.5786 5.92172 14.8284 5.17157C14.0783 4.42143 13.0609 4 12 4C10.9391 4 9.92172 4.42143 9.17157 5.17157C8.42143 5.92172 8 6.93913 8 8C8 9.06087 8.42143 10.0783 9.17157 10.8284C9.92172 11.5786 10.9391 12 12 12ZM12 12C10.4087 12 8.88258 12.6321 7.75736 13.7574C6.63214 14.8826 6 16.4087 6 18V21M12 12C13.5913 12 15.1174 12.6321 16.2426 13.7574C17.3679 14.8826 18 16.4087 18 18V21M13 4C13.404 2.336 15.015 1 17 1C19.172 1 20.98 2.79 21 5C20.98 7.21 19.172 9 17 9M17 9H16M17 9C20.288 9 23 11.686 23 15V17M11 4C10.596 2.336 8.985 1 7 1C4.828 1 3.02 2.79 3 5C3.02 7.21 4.828 9 7 9M7 9H8M7 9C3.712 9 1 11.686 1 15V17" stroke="url(#paint0_linear_117_441)" stroke-width="2"/>
<defs>
<linearGradient id="paint0_linear_117_441" x1="1.24444" y1="11.4348" x2="22.7556" y2="11.4348" gradientUnits="userSpaceOnUse">
<stop stop-color="#3CBEDB"/>
<stop offset="1" stop-color="#C94CCC"/>
</linearGradient>
</defs>
</svg>
