<svg width="22" height="32" viewBox="0 0 22 32" fill="none" xmlns="http://www.w3.org/2000/svg">
<path d="M5.69255 14.0139L12.8365 22.3724H8.61715H8.36715V22.6224C8.36715 24.1547 8.88709 25.6307 9.82184 26.7244C10.7576 27.8193 12.036 28.4438 13.3791 28.4438C14.7221 28.4438 16.0005 27.8193 16.9363 26.7244C17.871 25.6307 18.391 24.1547 18.391 22.6224V5.21869L21.0656 1.68255V3.01921V22.6224C21.0656 25.0304 20.2476 27.3333 18.801 29.0259C17.3553 30.7173 15.4038 31.6581 13.3791 31.6581C11.3543 31.6581 9.40278 30.7173 7.95714 29.0259C6.51048 27.3333 5.69255 25.0304 5.69255 22.6224V14.0139Z" stroke="url(#paint0_linear)" stroke-opacity="0.67" stroke-width="0.5"/>
<path d="M5.27276 4.4019V4.66595L5.53642 4.65153C6.1157 4.61984 7.55218 4.61959 9.16347 5.06052C10.7739 5.50119 12.5423 6.37759 13.8151 8.0869C15.2828 10.0579 15.904 13.0378 16.1503 15.855C16.3212 17.8091 16.3102 19.6551 16.2876 20.997C16.2189 20.8115 16.1425 20.6108 16.0586 20.3972C15.596 19.22 14.9018 17.6481 13.9759 16.0743C13.0509 14.502 11.8887 12.9172 10.4864 11.7231C9.08241 10.5276 7.42626 9.71453 5.52276 9.71453H5.27276V9.96453V12.7142L2.75441 10.0846L2.57386 10.2576L2.75441 10.0846L0.464574 7.69377L2.72667 4.85964L5.27276 1.66969V4.4019Z" stroke="url(#paint1_linear)" stroke-opacity="0.67" stroke-width="0.5"/>
<defs>
<linearGradient id="paint0_linear" x1="13.3791" y1="0.937592" x2="13.3791" y2="31.9081" gradientUnits="userSpaceOnUse">
<stop stop-color="#9900FF"/>
<stop offset="1"/>
</linearGradient>
<linearGradient id="paint1_linear" x1="8.34148" y1="0.955718" x2="8.34148" y2="22.4376" gradientUnits="userSpaceOnUse">
<stop stop-color="#9900FF"/>
<stop offset="1"/>
</linearGradient>
</defs>
</svg>
