<svg width="22" height="24" viewBox="0 0 22 24" fill="none" xmlns="http://www.w3.org/2000/svg">
<path d="M21.0243 5.7175C21.0049 5.52144 20.9361 5.3335 20.8243 5.17129C20.7124 5.00907 20.5613 4.87788 20.385 4.79L11.0516 0.123335C10.8895 0.0422281 10.7108 0 10.5295 0C10.3483 0 10.1695 0.0422281 10.0075 0.123335L0.674125 4.79C0.498278 4.87838 0.34759 5.00973 0.236032 5.17187C0.124473 5.334 0.0556557 5.52168 0.0359585 5.7175C0.0231252 5.84234 -1.08521 18.279 10.0565 23.2338C10.2053 23.301 10.3668 23.3358 10.5301 23.3358C10.6935 23.3358 10.8549 23.301 11.0038 23.2338C22.1455 18.279 21.0371 5.8435 21.0243 5.7175V5.7175ZM10.5301 20.8807V11.6675H2.95846C2.50546 10.0089 2.29175 8.29406 2.32379 6.575L10.5301 2.47184V11.6675H18.0668C17.1813 14.8642 15.1525 18.643 10.5301 20.8807Z" fill="#555555"/>
</svg>
