<svg width="22" height="22" viewBox="0 0 22 22" fill="none" xmlns="http://www.w3.org/2000/svg">
<path d="M16.5 7.33334C18.0188 7.33334 19.25 6.10212 19.25 4.58334C19.25 3.06455 18.0188 1.83334 16.5 1.83334C14.9812 1.83334 13.75 3.06455 13.75 4.58334C13.75 6.10212 14.9812 7.33334 16.5 7.33334Z" stroke="#4CAF50" stroke-width="1.5" stroke-linecap="round" stroke-linejoin="round"/>
<path d="M5.5 13.75C7.01878 13.75 8.25 12.5188 8.25 11C8.25 9.48122 7.01878 8.25 5.5 8.25C3.98122 8.25 2.75 9.48122 2.75 11C2.75 12.5188 3.98122 13.75 5.5 13.75Z" stroke="#4CAF50" stroke-width="1.5" stroke-linecap="round" stroke-linejoin="round"/>
<path d="M16.5 20.1667C18.0188 20.1667 19.25 18.9354 19.25 17.4167C19.25 15.8979 18.0188 14.6667 16.5 14.6667C14.9812 14.6667 13.75 15.8979 13.75 17.4167C13.75 18.9354 14.9812 20.1667 16.5 20.1667Z" stroke="#4CAF50" stroke-width="1.5" stroke-linecap="round" stroke-linejoin="round"/>
<path d="M7.87411 12.3842L14.1349 16.0325" stroke="#4CAF50" stroke-width="1.5" stroke-linecap="round" stroke-linejoin="round"/>
<path d="M14.1258 5.96751L7.87411 9.61585" stroke="#4CAF50" stroke-width="1.5" stroke-linecap="round" stroke-linejoin="round"/>
</svg>
