<svg width="21" height="19" viewBox="0 0 21 19" fill="none" xmlns="http://www.w3.org/2000/svg">
<path d="M13.0171 0.61954L13.0171 0.619558L20.1877 7.03138C20.1877 7.03139 20.1877 7.0314 20.1878 7.03142C20.4169 7.23642 20.4167 7.61377 20.1877 7.81857C20.1877 7.81858 20.1877 7.81858 20.1877 7.81859L13.0171 14.2311L13.0171 14.2311C12.7331 14.4851 12.2335 14.3067 12.2335 13.8375V10.1286V9.62106L11.7261 9.62862C10.1301 9.6524 8.7349 9.77274 7.57005 10.0455C6.40636 10.318 5.43682 10.7508 4.72902 11.4259C3.27228 12.8154 3.12436 15.0095 4.06034 18.1091L4.53899 17.9645L4.06034 18.1091C4.07923 18.1716 4.07267 18.2167 4.05946 18.2504C4.04474 18.288 4.01549 18.326 3.97214 18.3554C3.88501 18.4144 3.78303 18.4168 3.69592 18.3512L3.3951 18.7505L3.69591 18.3512C2.0129 17.0836 0.5 14.6533 0.5 12.2481C0.5 10.7105 0.810225 9.51093 1.34734 8.56978C1.88336 7.63053 2.66291 6.91771 3.65179 6.37917C5.65219 5.28979 8.47845 4.92898 11.7394 4.89032L12.2335 4.88447V4.39036V1.01313C12.2335 0.544047 12.7332 0.365666 13.0171 0.61954Z" stroke="white"/>
</svg>
