<svg width="22" height="20" viewBox="0 0 22 20" fill="none" xmlns="http://www.w3.org/2000/svg">
<path d="M11.4019 0.980058L13.1275 6.1151C13.3328 6.72584 13.9051 7.13729 14.5494 7.13729H20.0601C20.5485 7.13729 20.7471 7.76566 20.3475 8.04642L15.9478 11.1371C15.4043 11.519 15.1766 12.2127 15.3882 12.8424L17.0823 17.8836C17.2361 18.3413 16.716 18.7296 16.3209 18.452L11.7902 15.2693C11.2728 14.9058 10.5831 14.9058 10.0657 15.2693L5.53505 18.452C5.13993 18.7296 4.61987 18.3413 4.77368 17.8836L6.46776 12.8424C6.67934 12.2127 6.45165 11.519 5.90814 11.1371L1.50848 8.04642C1.10881 7.76566 1.30746 7.13729 1.79589 7.13729H7.30655C7.95085 7.13729 8.52318 6.72583 8.72842 6.1151L10.454 0.980056C10.6067 0.525751 11.2493 0.525748 11.4019 0.980058Z" stroke="#7C7C7C"/>
</svg>
