<svg width="15" height="15" viewBox="0 0 15 15" fill="none" xmlns="http://www.w3.org/2000/svg">
<path d="M12.2917 0C13.01 0 13.6988 0.285341 14.2067 0.793252C14.7147 1.30116 15 1.99004 15 2.70833V8.44083C14.9998 8.93783 14.8023 9.4144 14.4508 9.76583L9.76667 14.4508C9.59256 14.6249 9.38585 14.7631 9.15837 14.8573C8.93088 14.9515 8.68706 15 8.44083 15H2.70833C1.99004 15 1.30116 14.7147 0.793252 14.2067C0.285341 13.6988 0 13.01 0 12.2917V2.70833C0 1.99004 0.285341 1.30116 0.793252 0.793252C1.30116 0.285341 1.99004 0 2.70833 0H12.2917ZM12.2917 1.25H2.70833C2.32156 1.25 1.95063 1.40365 1.67714 1.67714C1.40365 1.95063 1.25 2.32156 1.25 2.70833V12.2917C1.25 13.0967 1.90333 13.75 2.70833 13.75H8.33333V11.1967C8.14744 11.2245 7.96026 11.2428 7.7725 11.2517L7.5 11.2583C6.4045 11.2674 5.33332 10.9354 4.435 10.3083C4.29863 10.214 4.20534 10.0693 4.17565 9.90612C4.16095 9.82534 4.1623 9.74245 4.17963 9.66218C4.19697 9.58192 4.22994 9.50585 4.27667 9.43833C4.3234 9.37081 4.38297 9.31316 4.45198 9.26866C4.52099 9.22416 4.59809 9.19369 4.67887 9.17898C4.84203 9.14929 5.0103 9.18563 5.14667 9.28C5.85083 9.76667 6.63 10.0083 7.5 10.0083C7.885 10.0083 8.2525 9.96083 8.60333 9.86583C8.81119 9.43392 9.13004 9.06497 9.52728 8.79673C9.92451 8.52849 10.3859 8.37058 10.8642 8.33917L11.0417 8.33333H13.75V2.70833C13.75 2.32156 13.5964 1.95063 13.3229 1.67714C13.0494 1.40365 12.6784 1.25 12.2917 1.25ZM12.8658 9.58333H11.0425C10.2775 9.58333 9.65 10.1725 9.58917 10.9225L9.58417 11.0417L9.58333 12.8658L12.8658 9.58333ZM5 3.95917C5.13922 3.95523 5.27781 3.97925 5.40758 4.0298C5.53736 4.08036 5.65567 4.15643 5.75554 4.2535C5.8554 4.35058 5.93479 4.4667 5.98899 4.59499C6.0432 4.72328 6.07113 4.86114 6.07113 5.00042C6.07113 5.13969 6.0432 5.27755 5.98899 5.40584C5.93479 5.53413 5.8554 5.65025 5.75554 5.74733C5.65567 5.84441 5.53736 5.92047 5.40758 5.97103C5.27781 6.02159 5.13922 6.04561 5 6.04167C4.72373 6.04167 4.45878 5.93192 4.26343 5.73657C4.06808 5.54122 3.95833 5.27627 3.95833 5C3.95833 4.72373 4.06808 4.45878 4.26343 4.26343C4.45878 4.06808 4.72373 3.95833 5 3.95833V3.95917ZM10 3.95917C10.1392 3.95523 10.2778 3.97925 10.4076 4.0298C10.5374 4.08036 10.6557 4.15643 10.7555 4.2535C10.8554 4.35058 10.9348 4.4667 10.989 4.59499C11.0432 4.72328 11.0711 4.86114 11.0711 5.00042C11.0711 5.13969 11.0432 5.27755 10.989 5.40584C10.9348 5.53413 10.8554 5.65025 10.7555 5.74733C10.6557 5.84441 10.5374 5.92047 10.4076 5.97103C10.2778 6.02159 10.1392 6.04561 10 6.04167C9.72894 6.034 9.47156 5.92093 9.28255 5.7265C9.09354 5.53206 8.98779 5.27158 8.98779 5.00042C8.98779 4.72925 9.09354 4.46877 9.28255 4.27434C9.47156 4.0799 9.72894 3.96684 10 3.95917V3.95917Z" fill="#545454"/>
</svg>
