<svg width="28" height="28" viewBox="0 0 28 28" fill="none" xmlns="http://www.w3.org/2000/svg">
<path d="M19.8333 5.83325C20.4522 5.83325 21.0456 6.07908 21.4832 6.51667C21.9208 6.95425 22.1666 7.54775 22.1666 8.16659V23.3333C22.1666 23.9521 21.9208 24.5456 21.4832 24.9832C21.0456 25.4208 20.4522 25.6666 19.8333 25.6666H11.6666C11.0478 25.6666 10.4543 25.4208 10.0167 24.9832C9.57915 24.5456 9.33331 23.9521 9.33331 23.3333H19.8333V5.83325Z" fill="#555555"/>
<path d="M15.1666 4.66659H5.83331C5.83331 4.04775 6.07915 3.45425 6.51673 3.01667C6.95432 2.57908 7.54781 2.33325 8.16665 2.33325H15.1666C15.7855 2.33325 16.379 2.57908 16.8166 3.01667C17.2541 3.45425 17.5 4.04775 17.5 4.66659V18.6666C17.5 19.2854 17.2541 19.8789 16.8166 20.3165C16.379 20.7541 15.7855 20.9999 15.1666 20.9999V4.66659Z" fill="#555555"/>
<path d="M8.16665 18.6666H17.5C17.5 19.2854 17.2541 19.8789 16.8166 20.3165C16.379 20.7541 15.7855 20.9999 15.1666 20.9999H8.16665C7.54781 20.9999 6.95432 20.7541 6.51673 20.3165C6.07915 19.8789 5.83331 19.2854 5.83331 18.6666V4.66659C5.83331 4.04775 6.07915 3.45425 6.51673 3.01667C6.95432 2.57908 7.54781 2.33325 8.16665 2.33325V18.6666Z" fill="#555555"/>
</svg>
