<svg width="21" height="19" viewBox="0 0 21 19" fill="none" xmlns="http://www.w3.org/2000/svg">
<path d="M4.29471 18.9H3.06765L3.80388 17.955C4.29471 17.3053 4.60147 16.4784 4.78553 15.4744C1.71788 14.1159 0 11.5762 0 8.26875C0 3.18937 3.98794 0 10.43 0C16.8721 0 20.86 3.18937 20.86 8.26875C20.86 13.4662 16.9334 16.5375 10.43 16.5375H10.0005C9.01888 17.6597 7.301 18.9 4.29471 18.9ZM10.43 1.18125C4.66282 1.18125 1.22706 3.83906 1.22706 8.26875C1.22706 12.0487 3.61982 13.8206 5.64447 14.5884L6.07394 14.7656L6.01259 15.2381C5.88988 16.1831 5.70582 17.01 5.33771 17.7187C7.36235 17.4825 8.52806 16.4784 9.20294 15.6516L9.387 15.4153H10.43C18.7126 15.4153 19.6329 10.4541 19.6329 8.32781C19.6329 3.83906 16.1972 1.18125 10.43 1.18125Z" fill="#7C7C7C"/>
</svg>
