<svg width="28" height="25" viewBox="0 0 28 25" fill="none" xmlns="http://www.w3.org/2000/svg">
<path d="M22.9127 19.0047H7.23273C6.28073 19.0047 5.55273 18.3547 5.55273 17.5047V8.50469C5.55273 7.65469 6.28073 7.00469 7.23273 7.00469H10.5927C10.7047 7.00469 10.8727 6.90469 10.9287 6.85469L11.5447 5.75469C11.7687 5.35469 12.3287 5.05469 12.8327 5.05469H17.3127C17.8167 5.05469 18.3767 5.35469 18.6007 5.75469L19.2167 6.85469C19.2727 6.95469 19.4407 7.00469 19.5527 7.00469H22.9127C23.8647 7.00469 24.5927 7.65469 24.5927 8.50469V17.5047C24.5927 18.3547 23.8647 19.0047 22.9127 19.0047V19.0047ZM7.23273 8.00469C6.89673 8.00469 6.67273 8.20469 6.67273 8.50469V17.5047C6.67273 17.8047 6.89673 18.0047 7.23273 18.0047H22.9127C23.2487 18.0047 23.4727 17.8047 23.4727 17.5047V8.50469C23.4727 8.20469 23.2487 8.00469 22.9127 8.00469H19.5527C19.0487 8.00469 18.4887 7.70469 18.2647 7.30469L17.6487 6.20469C17.5927 6.10469 17.4247 6.00469 17.3127 6.00469H12.8327C12.7207 6.00469 12.5527 6.10469 12.4967 6.15469L11.8807 7.25469C11.6567 7.70469 11.0967 8.00469 10.5927 8.00469H7.23273V8.00469Z" fill="black"/>
<path d="M14 17C11.2 17 8.95996 15 8.95996 12.5C8.95996 10 11.2 8 14 8C16.8 8 19.04 10 19.04 12.5C19.04 15 16.8 17 14 17ZM14 9C11.816 9 10.08 10.55 10.08 12.5C10.08 14.45 11.816 16 14 16C16.184 16 17.92 14.45 17.92 12.5C17.92 10.55 16.184 9 14 9Z" fill="black"/>
<path d="M19.6 9.5C19.9093 9.5 20.16 9.27614 20.16 9C20.16 8.72386 19.9093 8.5 19.6 8.5C19.2908 8.5 19.04 8.72386 19.04 9C19.04 9.27614 19.2908 9.5 19.6 9.5Z" fill="black"/>
<path d="M6.71973 6H8.95973V6.50098H6.71973V6Z" fill="black"/>
<path d="M14.0002 10.5V10C12.4322 10 11.2002 11.1 11.2002 12.5H11.7602C11.7602 11.4 12.7682 10.5 14.0002 10.5Z" fill="black"/>
</svg>
