<svg width="22" height="32" viewBox="0 0 22 32" fill="none" xmlns="http://www.w3.org/2000/svg">
<path d="M21.3156 22.6224V3.01921V0.937592L18.141 5.13479V22.6224C18.141 24.1 17.6393 25.5171 16.7462 26.562C15.8532 27.6068 14.642 28.1938 13.3791 28.1938C12.1161 28.1938 10.9049 27.6068 10.0119 26.562C9.11887 25.5171 8.61717 24.1 8.61717 22.6224H13.3791L5.44257 13.3367V22.6224C5.44257 25.0851 6.27873 27.447 7.76712 29.1884C9.2555 30.9298 11.2742 31.9081 13.3791 31.9081C15.484 31.9081 17.5026 30.9298 18.991 29.1884C20.4794 27.447 21.3156 25.0851 21.3156 22.6224Z" fill="url(#paint0_linear)"/>
<path d="M5.52276 4.40191V0.955719L2.53128 4.70369L0.132751 7.70875L2.57386 10.2576L5.52276 13.3367V9.96453C12.8328 9.96453 16.5156 22.4376 16.5156 22.4376C16.5156 20.099 17.0391 11.998 14.0156 7.93759C11.3828 4.40191 6.71631 4.33661 5.52276 4.40191Z" fill="url(#paint1_linear)"/>
<defs>
<linearGradient id="paint0_linear" x1="16.869" y1="11.4799" x2="2.90877" y2="20.1835" gradientUnits="userSpaceOnUse">
<stop stop-color="#833AB4"/>
<stop offset="0.489583" stop-color="#FD1D1D"/>
<stop offset="1" stop-color="#FCB045"/>
</linearGradient>
<linearGradient id="paint1_linear" x1="12.0856" y1="6.66214" x2="7.04514" y2="13.7204" gradientUnits="userSpaceOnUse">
<stop stop-color="#833AB4"/>
<stop offset="0.489583" stop-color="#FF3C3C"/>
<stop offset="1" stop-color="#FCB045"/>
</linearGradient>
</defs>
</svg>
