<svg width="28" height="28" viewBox="0 0 28 28" fill="none" xmlns="http://www.w3.org/2000/svg">
<path d="M15.75 16.625H21V18.375H15.75V16.625Z" fill="#555555"/>
<path d="M15.75 13.125H26.25V14.875H15.75V13.125Z" fill="#555555"/>
<path d="M15.75 9.625H26.25V11.375H15.75V9.625Z" fill="#555555"/>
<path d="M12.25 18.375V16.625H7.875V14.875H6.125V16.625H1.75V18.375H8.93813C8.6165 19.6882 7.94664 20.8904 6.99913 21.8549C6.50243 21.3368 6.07668 20.7551 5.733 20.125H3.79138C4.2361 21.1929 4.87217 22.1706 5.66825 23.0099C4.73031 23.6778 3.7067 24.2164 2.625 24.6111L3.23925 26.25C4.58541 25.7596 5.85066 25.0707 6.993 24.206C8.1404 25.0712 9.41063 25.7602 10.7616 26.25L11.375 24.6111C10.2938 24.2171 9.27047 23.6794 8.33262 23.0125C9.56775 21.7354 10.3984 20.1222 10.7205 18.375H12.25Z" fill="#555555"/>
<path d="M9.77112 11.375H11.6664L7.65625 1.75H5.76013L1.75 11.375H3.64525L4.375 9.625H9.04138L9.77112 11.375ZM5.10388 7.875L6.70775 4.025L8.3125 7.875H5.10388Z" fill="#555555"/>
</svg>
