<svg width="28" height="28" viewBox="0 0 28 28" fill="none" xmlns="http://www.w3.org/2000/svg">
<path d="M14 15.1665C15.933 15.1665 17.5 13.5995 17.5 11.6665C17.5 9.73351 15.933 8.1665 14 8.1665C12.067 8.1665 10.5 9.73351 10.5 11.6665C10.5 13.5995 12.067 15.1665 14 15.1665Z" stroke="#555555" stroke-width="2" stroke-linecap="round" stroke-linejoin="round"/>
<path d="M14 2.33325C11.5247 2.33325 9.1507 3.31658 7.40036 5.06692C5.65002 6.81726 4.66669 9.19123 4.66669 11.6666C4.66669 13.8739 5.13569 15.3183 6.41669 16.9166L14 25.6666L21.5834 16.9166C22.8644 15.3183 23.3334 13.8739 23.3334 11.6666C23.3334 9.19123 22.35 6.81726 20.5997 5.06692C18.8493 3.31658 16.4754 2.33325 14 2.33325V2.33325Z" stroke="#555555" stroke-width="2" stroke-linecap="round" stroke-linejoin="round"/>
</svg>
