<svg width="13" height="15" viewBox="0 0 13 15" fill="none" xmlns="http://www.w3.org/2000/svg">
<path d="M6.49998 10.3125C8.61248 10.3125 10.2916 8.85938 10.2916 7.03125V3.28125C10.2916 1.45313 8.61248 0 6.49998 0C4.38748 0 2.70831 1.45313 2.70831 3.28125V7.03125C2.70831 8.85938 4.38748 10.3125 6.49998 10.3125ZM3.79165 3.28125C3.79165 1.96875 4.98331 0.9375 6.49998 0.9375C8.01665 0.9375 9.20831 1.96875 9.20831 3.28125V7.03125C9.20831 8.34375 8.01665 9.375 6.49998 9.375C4.98331 9.375 3.79165 8.34375 3.79165 7.03125V3.28125Z" fill="#545454"/>
<path d="M13 7.03125H11.9167C11.9167 9.60938 9.47917 11.7188 6.5 11.7188C3.52083 11.7188 1.08333 9.60938 1.08333 7.03125H0C0 9.98438 2.6 12.375 5.95833 12.6094V14.0625H4.33333C4.00833 14.0625 3.79167 14.25 3.79167 14.5312C3.79167 14.8125 4.00833 15 4.33333 15H8.66667C8.99167 15 9.20833 14.8125 9.20833 14.5312C9.20833 14.25 8.99167 14.0625 8.66667 14.0625H7.04167V12.6094C10.4 12.375 13 9.98438 13 7.03125Z" fill="#545454"/>
</svg>
