<svg width="21" height="29" viewBox="0 0 21 29" fill="none" xmlns="http://www.w3.org/2000/svg">
<path d="M3.5 6.20901C3.5 5.97377 3.59219 5.74816 3.75628 5.58182C3.92038 5.41547 4.14294 5.32202 4.375 5.32202H13.125C13.3571 5.32202 13.5796 5.41547 13.7437 5.58182C13.9078 5.74816 14 5.97377 14 6.20901C14 6.44426 13.9078 6.66987 13.7437 6.83621C13.5796 7.00256 13.3571 7.09601 13.125 7.09601H4.375C4.14294 7.09601 3.92038 7.00256 3.75628 6.83621C3.59219 6.66987 3.5 6.44426 3.5 6.20901ZM3.5 9.75699C3.5 9.52174 3.59219 9.29613 3.75628 9.12979C3.92038 8.96345 4.14294 8.87 4.375 8.87H16.625C16.8571 8.87 17.0796 8.96345 17.2437 9.12979C17.4078 9.29613 17.5 9.52174 17.5 9.75699V23.9489C17.5 24.1841 17.4078 24.4097 17.2437 24.5761C17.0796 24.7424 16.8571 24.8359 16.625 24.8359H4.375C4.14294 24.8359 3.92038 24.7424 3.75628 24.5761C3.59219 24.4097 3.5 24.1841 3.5 23.9489V9.75699Z" fill="#555555"/>
<path d="M0 3.54798C0 2.607 0.368749 1.70455 1.02513 1.03918C1.6815 0.373804 2.57174 0 3.5 0L17.5 0C18.4283 0 19.3185 0.373804 19.9749 1.03918C20.6313 1.70455 21 2.607 21 3.54798V24.8358C21 25.7768 20.6313 26.6793 19.9749 27.3446C19.3185 28.01 18.4283 28.3838 17.5 28.3838H3.5C2.57174 28.3838 1.6815 28.01 1.02513 27.3446C0.368749 26.6793 0 25.7768 0 24.8358V3.54798ZM17.5 1.77399H3.5C3.03587 1.77399 2.59075 1.96089 2.26256 2.29358C1.93437 2.62627 1.75 3.07749 1.75 3.54798V24.8358C1.75 25.3063 1.93437 25.7576 2.26256 26.0902C2.59075 26.4229 3.03587 26.6098 3.5 26.6098H17.5C17.9641 26.6098 18.4092 26.4229 18.7374 26.0902C19.0656 25.7576 19.25 25.3063 19.25 24.8358V3.54798C19.25 3.07749 19.0656 2.62627 18.7374 2.29358C18.4092 1.96089 17.9641 1.77399 17.5 1.77399Z" fill="#555555"/>
</svg>
