<svg width="20" height="20" viewBox="0 0 20 20" fill="none" xmlns="http://www.w3.org/2000/svg">
<path d="M15.8166 2.38037H4.51748C3.62601 2.38037 2.90332 3.08925 2.90332 3.9637V15.047C2.90332 15.9215 3.62601 16.6304 4.51748 16.6304H15.8166C16.7081 16.6304 17.4308 15.9215 17.4308 15.047V3.9637C17.4308 3.08925 16.7081 2.38037 15.8166 2.38037Z" stroke="#4CAF50" stroke-linecap="round" stroke-linejoin="round"/>
<path d="M7.34148 7.91944C8.01009 7.91944 8.5521 7.38777 8.5521 6.73193C8.5521 6.0761 8.01009 5.54443 7.34148 5.54443C6.67287 5.54443 6.13086 6.0761 6.13086 6.73193C6.13086 7.38777 6.67287 7.91944 7.34148 7.91944Z" stroke="#4CAF50" stroke-linecap="round" stroke-linejoin="round"/>
<path d="M17.4309 11.8778L13.3955 7.91943L4.51758 16.6278" stroke="#4CAF50" stroke-linecap="round" stroke-linejoin="round"/>
</svg>
