<svg width="16" height="17" viewBox="0 0 16 17" fill="none" xmlns="http://www.w3.org/2000/svg">
<path d="M13.817 1.38013H2.51783C1.62635 1.38013 0.903664 2.08901 0.903664 2.96346V14.0468C0.903664 14.9212 1.62635 15.6301 2.51783 15.6301H13.817C14.7084 15.6301 15.4311 14.9212 15.4311 14.0468V2.96346C15.4311 2.08901 14.7084 1.38013 13.817 1.38013Z" stroke="#545454" stroke-linecap="round" stroke-linejoin="round"/>
<path d="M5.34148 6.91919C6.01009 6.91919 6.5521 6.38753 6.5521 5.73169C6.5521 5.07585 6.01009 4.54419 5.34148 4.54419C4.67287 4.54419 4.13086 5.07585 4.13086 5.73169C4.13086 6.38753 4.67287 6.91919 5.34148 6.91919Z" stroke="#545454" stroke-linecap="round" stroke-linejoin="round"/>
<path d="M15.4309 10.8775L11.3955 6.91919L2.51758 15.6275" stroke="#545454" stroke-linecap="round" stroke-linejoin="round"/>
</svg>
