<svg width="17" height="16" viewBox="0 0 17 16" fill="none" xmlns="http://www.w3.org/2000/svg">
<path d="M13.9133 1H2.61416C1.72269 1 1 1.70888 1 2.58333V13.6667C1 14.5411 1.72269 15.25 2.61416 15.25H13.9133C14.8048 15.25 15.5275 14.5411 15.5275 13.6667V2.58333C15.5275 1.70888 14.8048 1 13.9133 1Z" stroke="#545454" stroke-width="1.2" stroke-linecap="round" stroke-linejoin="round"/>
<path d="M5.4378 6.53906C6.1064 6.53906 6.64842 6.0074 6.64842 5.35156C6.64842 4.69572 6.1064 4.16406 5.4378 4.16406C4.76919 4.16406 4.22717 4.69572 4.22717 5.35156C4.22717 6.0074 4.76919 6.53906 5.4378 6.53906Z" stroke="#545454" stroke-width="1.2" stroke-linecap="round" stroke-linejoin="round"/>
<path d="M15.5272 10.4974L11.4918 6.53906L2.61389 15.2474" stroke="#545454" stroke-width="1.2" stroke-linecap="round" stroke-linejoin="round"/>
</svg>
