<svg width="24" height="24" viewBox="0 0 24 24" fill="none" xmlns="http://www.w3.org/2000/svg">
<path d="M12 0.75C5.787 0.75 0.75 5.787 0.75 12C0.75 18.213 5.787 23.25 12 23.25C18.213 23.25 23.25 18.213 23.25 12C23.25 5.787 18.213 0.75 12 0.75ZM11.3359 12.2974C11.3359 12.5051 10.9436 12.2138 10.8405 12.4219C10.7374 12.6296 10.6759 11.6951 10.6346 11.3827C10.5926 11.0715 10.4276 12.2347 10.2833 12.1931C10.1378 12.1519 9.41513 12.1099 9.27075 11.8605C9.12638 11.6115 9.0645 11.196 9.27075 11.196C9.47775 11.196 10.2416 10.4689 10.4276 10.1569C10.6132 9.84525 10.7992 9.76163 10.7167 9.3675C10.6346 8.97263 11.1394 8.52562 11.1304 8.84812C11.109 9.55462 11.6055 9.3675 11.7911 9.9285C11.9771 10.4891 11.4817 10.8844 11.4604 10.6762C11.4397 10.4685 11.1919 10.5517 10.6965 10.8221C10.2007 11.0921 10.8203 10.905 10.944 11.2582C11.0681 11.6115 11.2125 11.466 11.6464 11.5905C12.0795 11.7154 11.8534 11.2376 12.0004 11.0921C12.1485 10.9466 12.1215 11.7364 12.3161 11.5282C12.5104 11.3205 13.1332 11.6528 13.1332 11.6528C13.5877 11.8609 14.2279 11.9347 14.2279 11.9347C14.8271 12.1125 15.0953 12.6296 15.3848 12.9326C15.6739 13.2364 15.3431 13.3155 14.8894 12.9326C14.4349 12.5505 14.4143 12.6915 14.2699 12.8756C14.1248 13.059 13.8154 12.7335 13.5259 12.858C13.2371 12.9829 13.65 12.4012 13.3815 12.1935C13.113 11.9857 12.4523 11.7986 12.4733 12.0278C12.4939 12.2558 11.9561 12.1309 11.5639 11.9351C11.1709 11.7386 11.3359 12.0892 11.3359 12.2974ZM14.5991 18.0529C14.8886 18.0941 14.9801 17.8279 14.9921 18.0529C15.0071 18.3499 14.9093 18.8212 14.7233 18.759C14.5376 18.6964 14.31 18.0109 14.5991 18.0529ZM18.9364 18.363C18.6885 18.4654 18.585 18.6139 18.4613 18.9667C18.3371 19.3196 17.9857 19.5064 17.7589 19.3196C17.5324 19.1329 17.8826 18.8003 18.1102 18.7646C18.3371 18.7286 18.42 18.3225 18.7091 18.0529C18.9986 17.7825 18.4669 17.3003 18.7091 17.097C18.8333 16.9931 18.9784 17.4709 19.1636 17.4503C19.35 17.4289 19.6185 17.616 19.3909 17.7926C19.1636 17.9689 19.1842 18.2602 18.9364 18.363ZM15.852 3.14625C15.969 2.937 16.02 2.613 16.0406 2.307C16.1835 2.36662 16.3241 2.43 16.4636 2.49563C16.0661 3.14775 15.6495 3.50775 15.852 3.14625ZM14.1176 1.899C14.2414 2.17988 14.2414 3.27037 14.2414 3.86212C14.2414 4.45462 15.1399 3.582 15.6045 3.55087C16.0687 3.51975 14.1176 4.704 14.1176 5.3895C14.1176 6.075 13.3117 6.075 12.816 6.41775C12.3202 6.7605 12.3206 6.85388 12.3206 6.41775C12.3206 5.98163 13.0639 5.67 13.4981 5.514C13.9313 5.35837 13.7764 4.17413 13.9144 3.83138C14.052 3.489 13.9654 1.55513 14.1176 1.899ZM12.72 13.1914C13.0091 13.1291 13.3808 13.2739 13.3193 13.4404C13.257 13.6065 13.1535 13.731 13.3193 13.8139C13.4839 13.8971 13.8352 14.3126 13.9147 14.1259C13.9931 13.9387 13.8855 12.9847 14.1244 13.1914C14.2695 13.3162 14.538 14.1881 15.1369 14.7285C15.7358 15.2685 15.8801 15.996 15.7766 16.2454C15.6735 16.4947 15.405 16.827 15.3638 17.3048C15.3221 17.7825 14.7233 17.8448 14.4754 17.7619C14.2275 17.679 13.7944 17.8451 13.7944 17.6374C13.7944 17.4292 13.7527 17.1596 13.4636 17.1506C13.1745 17.1416 12.9885 16.9725 12.8235 16.6605C12.6581 16.3489 11.6873 16.6193 11.5429 16.7854C11.3985 16.9511 10.8821 16.8889 10.5311 17.097C10.1798 17.3048 9.99375 16.8683 10.0972 16.4528C10.2004 16.0373 9.72563 15.6011 9.72563 15.0604C9.72563 14.5204 10.8611 14.6242 10.944 14.4585C11.0273 14.292 11.109 14.2088 11.3156 13.9808C11.5226 13.752 11.7082 13.5233 12.0004 13.6751C12.2925 13.8274 12.2044 13.6275 12.3161 13.3991C12.4279 13.1696 12.4301 13.2532 12.72 13.1914ZM12 1.5C12.4646 1.5 12.9214 1.53337 13.3702 1.59187C13.3474 1.75387 13.4287 1.86637 13.5907 1.83675C13.9312 1.7745 13.9312 2.3355 13.8075 3.05212C13.6834 3.76912 13.188 4.48538 12.7545 4.51688C12.3206 4.54838 12.1342 5.17162 12.2276 5.45175C12.3206 5.73225 11.9801 6.38663 11.7626 6.38663C11.5462 6.38663 11.5774 5.85712 11.5463 5.26462C11.5151 4.67287 11.0505 4.953 10.617 5.26462C10.1831 5.57625 11.2669 5.57625 11.0812 5.70075C10.8952 5.82562 10.9264 6.10613 11.0812 6.51113C11.2365 6.91613 10.5859 7.758 10.3069 8.03813C10.0283 8.31863 9.471 8.03812 8.88188 8.412C8.2935 8.78587 9.22275 9.62737 9.1605 9.87675C9.099 10.1265 8.60287 10.0639 8.13825 9.68962C7.67362 9.31575 7.89038 10.1573 8.23088 10.6249C8.57213 11.0921 8.57213 11.5905 8.75738 11.934C8.94375 12.2771 10.059 12.2764 10.5544 12.5258C11.0497 12.7751 12.3818 12.588 12.3818 12.588C12.9705 12.5569 11.4525 13.3669 10.8949 13.0868C10.3376 12.8059 8.23088 12.3075 7.67325 11.622C7.11563 10.9365 6.372 9.09787 6.80587 9.68962C7.239 10.2817 8.13788 11.2481 8.01375 10.9987C7.89 10.7494 7.45687 10.095 7.48725 9.62737C7.51837 9.16012 7.2705 9.00412 7.08525 9.16012C6.89887 9.31575 6.96112 8.63025 6.744 8.25638C6.52725 7.8825 5.81475 8.724 5.31938 8.85787C4.82325 8.99175 4.824 10.0639 4.545 10.251C4.266 10.4374 3.80175 8.97338 3.83212 8.31863C3.86325 7.66425 3.4605 8.5365 3.12 7.8825C2.99437 7.64063 2.763 7.52737 2.52113 7.47937C4.21088 3.94387 7.82062 1.5 12 1.5Z" fill="url(#paint0_linear_117_411)"/>
<defs>
<linearGradient id="paint0_linear_117_411" x1="1" y1="12.4891" x2="23" y2="12.4891" gradientUnits="userSpaceOnUse">
<stop stop-color="#3CBEDB"/>
<stop offset="1" stop-color="#C94CCC"/>
</linearGradient>
</defs>
</svg>
